HIERARCHY
ROOT Hips
{
	OFFSET 0.000000 0.000000 0.000000
	CHANNELS 6 Xposition Yposition Zposition Xrotation Yrotation Zrotation
	JOINT LeftUpLeg_virtual
	{
		OFFSET 0.000000 0.000000 0.000000
		CHANNELS 3 Xrotation Yrotation Zrotation
		JOINT LeftUpLeg
		{
			OFFSET 15.427100 -6.655098 0.678600
			CHANNELS 3 Xrotation Yrotation Zrotation
			JOINT LeftLeg
			{
				OFFSET 4.081073 -39.591068 13.024000
				CHANNELS 3 Xrotation Yrotation Zrotation
				JOINT LeftFoot
				{
					OFFSET -4.081074 -37.707932 -15.979700
					CHANNELS 3 Xrotation Yrotation Zrotation
					JOINT LeftToeBase
					{
						OFFSET 5.346399 -15.068900 20.645000
						CHANNELS 3 Xrotation Yrotation Zrotation
						JOINT LeftToe_End
						{
							OFFSET 2.754700 0.931300 11.300900
							CHANNELS 3 Xrotation Yrotation Zrotation
							End Site
							{
								OFFSET 0 0 0
							}
						}
					}
				}
			}
		}
	}
	JOINT RightUpLeg_virtual
	{
		OFFSET 0.000000 0.000000 0.000000
		CHANNELS 3 Xrotation Yrotation Zrotation
		JOINT RightUpLeg
		{
			OFFSET -15.569500 -6.655098 0.678600
			CHANNELS 3 Xrotation Yrotation Zrotation
			JOINT RightLeg
			{
				OFFSET -4.081825 -39.591045 13.023800
				CHANNELS 3 Xrotation Yrotation Zrotation
				JOINT RightFoot
				{
					OFFSET 4.081824 -37.707954 -15.979600
					CHANNELS 3 Xrotation Yrotation Zrotation
					JOINT RightToeBase
					{
						OFFSET -5.346400 -15.068900 20.645000
						CHANNELS 3 Xrotation Yrotation Zrotation
						JOINT RightToe_End
						{
							OFFSET -2.754700 0.931300 11.300900
							CHANNELS 3 Xrotation Yrotation Zrotation
							End Site
							{
								OFFSET 0 0 0
							}
						}
					}
				}
			}
		}
	}
	JOINT Spine_virtual
	{
		OFFSET 0.000000 0.000000 0.000000
		CHANNELS 3 Xrotation Yrotation Zrotation
		JOINT Spine
		{
			OFFSET -0.279200 12.230698 -2.892100
			CHANNELS 3 Xrotation Yrotation Zrotation
			JOINT Spine1
			{
				OFFSET -0.232667 10.192268 -1.242267
				CHANNELS 3 Xrotation Yrotation Zrotation
				JOINT Spine1_split
				{
					OFFSET -0.232667 10.192268 -1.242267
					CHANNELS 3 Xrotation Yrotation Zrotation
					JOINT Spine2
					{
						OFFSET -0.232667 10.192268 -1.242267
						CHANNELS 3 Xrotation Yrotation Zrotation
						JOINT Neck_virtual
						{
							OFFSET 0.000000 0.000000 0.000000
							CHANNELS 3 Xrotation Yrotation Zrotation
							JOINT Neck
							{
								OFFSET -0.418800 17.814194 8.416900
								CHANNELS 3 Xrotation Yrotation Zrotation
								JOINT Head
								{
									OFFSET 0.000000 7.031097 3.806800
									CHANNELS 3 Xrotation Yrotation Zrotation
									JOINT HeadTop_End
									{
										OFFSET 0.000000 24.646606 12.978600
										CHANNELS 3 Xrotation Yrotation Zrotation
										End Site
										{
											OFFSET 0 0 0
										}
									}
								}
							}
						}
						JOINT LeftShoulder_virtual
						{
							OFFSET 0.000000 0.000000 0.000000
							CHANNELS 3 Xrotation Yrotation Zrotation
							JOINT LeftShoulder
							{
								OFFSET 8.476499 7.247704 -3.868750
								CHANNELS 3 Xrotation Yrotation Zrotation
								JOINT LeftShoulder_split
								{
									OFFSET 8.476499 7.247704 -3.868750
									CHANNELS 3 Xrotation Yrotation Zrotation
									JOINT LeftArm
									{
										OFFSET 9.308998 -2.777710 0.208600
										CHANNELS 3 Xrotation Yrotation Zrotation
										JOINT LeftForeArm
										{
											OFFSET 29.972298 0.000000 0.000000
											CHANNELS 3 Xrotation Yrotation Zrotation
											JOINT LeftHand
											{
												OFFSET 26.026505 0.000000 0.000000
												CHANNELS 3 Xrotation Yrotation Zrotation
												End Site
												{
													OFFSET 0 0 0
												}
											}
										}
									}
								}
							}
						}
						JOINT RightShoulder_virtual
						{
							OFFSET 0.000000 0.000000 0.000000
							CHANNELS 3 Xrotation Yrotation Zrotation
							JOINT RightShoulder
							{
								OFFSET -7.570500 7.247704 -3.868750
								CHANNELS 3 Xrotation Yrotation Zrotation
								JOINT RightShoulder_split
								{
									OFFSET -7.570500 7.247704 -3.868750
									CHANNELS 3 Xrotation Yrotation Zrotation
									JOINT RightArm
									{
										OFFSET -9.308998 -2.777710 0.208500
										CHANNELS 3 Xrotation Yrotation Zrotation
										JOINT RightForeArm
										{
											OFFSET -29.972300 0.000000 0.000000
											CHANNELS 3 Xrotation Yrotation Zrotation
											JOINT RightHand
											{
												OFFSET -26.026505 0.000000 0.000000
												CHANNELS 3 Xrotation Yrotation Zrotation
												End Site
												{
													OFFSET 0 0 0
												}
											}
										}
									}
								}
							}
						}
					}
				}
			}
		}
	}
}
MOTION
Frames: 4
Frame Time: 0.03333333
0.782078 92.620392 -1.278275 0.000000 0.000000 0.000000 -2.832234 5.304016 -1.979738 -7.143157 11.182758 15.720307 15.033824 -4.359565 -1.755364 -8.210395 1.091520 -6.336863 1.441684 0.106133 -2.418173 0.000000 0.000000 0.000000 -3.068796 6.069239 -1.797397 -10.403564 -3.913336 -2.031297 14.744999 3.573462 0.804875 0.630383 0.087822 1.887439 -0.086888 0.670574 1.684513 0.000000 0.000000 0.000000 -2.925285 8.319421 -1.929770 9.744079 -0.285383 1.416969 3.207690 0.204871 -0.561194 0.273514 -2.193037 1.162911 0.000000 0.000000 0.000000 -4.287150 0.014315 0.111795 -0.055353 0.084465 0.465600 6.402011 -3.805311 -1.268323 0.000000 0.000000 0.000000 -4.703915 -0.423155 0.173832 0.588941 -3.796714 -8.437397 -0.711776 -2.089255 1.000435 4.862422 1.604488 -72.191951 3.423203 -11.809681 1.326594 0.000000 0.000000 0.000000 -5.442565 -0.758874 0.172773 0.653550 8.556756 5.820767 -3.082733 -0.938464 -0.419716 3.513591 12.499786 76.546326 16.801434 19.097568 -4.898254 0.000000 0.000000 0.000000 
1.034303 92.639069 -1.458122 0.000000 0.000000 0.000000 -2.668354 5.282695 -1.934839 -6.967380 11.043554 15.500237 15.065384 -4.149681 -1.758590 -8.479682 1.242386 -6.404035 1.512910 0.084329 -2.404953 0.000000 0.000000 0.000000 -2.765829 5.951331 -1.831521 -10.524043 -4.168185 -2.210497 14.511997 3.533139 0.740994 0.422014 0.156423 1.489832 0.301319 0.688463 1.610875 0.000000 0.000000 0.000000 -2.677583 7.880593 -1.943294 9.638297 -0.250256 1.426456 3.184735 0.215566 -0.578506 0.321846 -2.359339 0.989144 0.000000 0.000000 0.000000 -4.190979 0.038116 0.101827 -0.043215 0.187976 0.441794 6.459585 -3.961151 -1.105661 0.000000 0.000000 0.000000 -4.695293 -0.414402 0.125574 0.631773 -3.748272 -8.344935 -0.768749 -1.992729 1.042688 4.750352 1.446930 -72.198679 3.393524 -11.898289 1.307011 0.000000 0.000000 0.000000 -5.462787 -0.739738 0.197457 0.631998 8.203515 5.664811 -3.103184 -0.914265 -0.439250 3.432771 12.883216 76.455280 16.858713 19.578247 -5.086334 0.000000 0.000000 0.000000 
1.381375 92.523926 -1.413937 0.000000 0.000000 0.000000 -2.634041 5.318706 -1.946187 -6.820066 10.872394 15.307854 15.335974 -3.911500 -1.869905 -8.970601 1.388551 -6.397155 1.644087 0.058150 -2.321624 0.000000 0.000000 0.000000 -2.524585 5.800084 -1.949087 -10.323699 -4.330120 -2.539688 14.257515 3.630600 0.625820 -0.128623 0.457848 1.171627 0.118567 0.725969 1.375621 0.000000 0.000000 0.000000 -2.486442 7.410222 -1.911555 9.492030 -0.140156 1.439968 3.185775 0.264476 -0.602359 0.345557 -2.366872 0.840539 0.000000 0.000000 0.000000 -4.056019 0.084890 0.091774 -0.138635 0.354945 0.289993 6.367221 -4.081579 -0.863858 0.000000 0.000000 0.000000 -4.632034 -0.380705 0.078079 0.690387 -3.697938 -8.137967 -0.860635 -2.032083 1.078079 4.605020 1.127535 -72.118916 3.454246 -12.004915 1.253633 0.000000 0.000000 0.000000 -5.393565 -0.694003 0.206251 0.637081 7.867112 5.446946 -3.051485 -1.034438 -0.459970 3.447011 13.412617 76.320964 16.978805 20.351701 -5.678769 0.000000 0.000000 0.000000 
1.785683 92.297813 -1.112858 0.000000 0.000000 0.000000 -2.714378 5.340765 -1.991642 -6.691771 10.711039 15.124665 15.684845 -3.620793 -2.078333 -9.544639 1.481280 -6.314761 1.653975 0.027955 -2.140565 0.000000 0.000000 0.000000 -2.372826 5.654849 -2.063705 -9.846408 -4.460775 -3.058422 14.089895 3.825424 0.604965 -0.845626 0.934841 0.973268 -0.434945 0.783915 1.066516 0.000000 0.000000 0.000000 -2.426182 7.023879 -1.846528 9.326083 -0.002049 1.452282 3.209091 0.335836 -0.609664 0.322964 -2.239489 0.765788 0.000000 0.000000 0.000000 -3.917458 0.133576 0.103943 -0.296084 0.548081 0.038654 6.143836 -4.192615 -0.555784 0.000000 0.000000 0.000000 -4.519862 -0.333382 0.052176 0.762355 -3.642142 -7.873891 -1.022285 -2.100238 1.095388 4.483292 0.688229 -72.053674 3.601625 -12.078422 1.170468 0.000000 0.000000 0.000000 -5.241690 -0.634840 0.214060 0.670788 7.587014 5.196441 -2.993365 -1.215939 -0.535600 3.516436 13.897409 76.207788 17.101317 21.198235 -6.571162 0.000000 0.000000 0.000000 
